# xmcd
#
# Track frame offsets: 
#        150
#        32241
#        55951
#        85333
#        106610
#        133989
#        160653
#        180515
#        198378
#        223666
#        257100
#
# Disc length: 3996 seconds
#
# Revision: 0
# Processed by: cddbd v1.5.2PL0 Copyright (c) Steve Scherf et al.
# Submitted via: ExactAudioCopy v1.0b3
#
DISCID=980f9a0b
DTITLE=Stefan Nilsson - The Gift
DYEAR=2015
DGENRE=Jazz
TTITLE0=Yttersti
TTITLE1=Menuet (Anna Magdalena Notebook)
TTITLE2=The Gift
TTITLE3=Martin Beck theme
TTITLE4=Let's go
TTITLE5=Keltsong
TTITLE6=Honeysuckle Rose
TTITLE7=Don't Get Around Much Anymore
TTITLE8=The Happy Gang
TTITLE9=Winter (Four Seasons)
TTITLE10=Sana Sananina
EXTD=
EXTT0=
EXTT1=
EXTT2=
EXTT3=
EXTT4=
EXTT5=
EXTT6=
EXTT7=
EXTT8=
EXTT9=
EXTT10=
PLAYORDER=
